<svg height="448pt" viewBox="0 -72 448 448" width="448pt" xmlns="http://www.w3.org/2000/svg"><path d="m184 224h64v8h-64zm0 0"/><path d="m104 16v256h64v-256zm48 80h-32v-16h32zm0-32h-32v-16h32zm0 0"/><path d="m184 64h64v144h-64zm0 0"/><path d="m0 288h448v16h-448zm0 0"/><path d="m184 248h64v24h-64zm0 0"/><path d="m24 224h64v16h-64zm0 0"/><path d="m88 48h-64v160h64zm-32 64c-13.253906 0-24-10.746094-24-24s10.746094-24 24-24 24 10.746094 24 24-10.746094 24-24 24zm0 0"/><path d="m64 88c0 4.417969-3.582031 8-8 8s-8-3.582031-8-8 3.582031-8 8-8 8 3.582031 8 8zm0 0"/><path d="m24 256h64v16h-64zm0 0"/><path d="m424 80h-64v128h64zm-32 64c-13.253906 0-24-10.746094-24-24s10.746094-24 24-24 24 10.746094 24 24-10.746094 24-24 24zm0 0"/><path d="m360 224h64v8h-64zm0 0"/><path d="m400 120c0 4.417969-3.582031 8-8 8s-8-3.582031-8-8 3.582031-8 8-8 8 3.582031 8 8zm0 0"/><path d="m264 56h80v216h-80zm0 0"/><path d="m264 0h80v16h-80zm0 0"/><path d="m264 32h80v8h-80zm0 0"/><path d="m360 248h64v24h-64zm0 0"/></svg>