<?xml version="1.0" encoding="iso-8859-1"?>
<!-- Generator: Adobe Illustrator 19.0.0, SVG Export Plug-In . SVG Version: 6.00 Build 0)  -->
<svg version="1.1" id="Capa_1" xmlns="http://www.w3.org/2000/svg" xmlns:xlink="http://www.w3.org/1999/xlink" x="0px" y="0px"
	 viewBox="0 0 476.249 476.249" style="enable-background:new 0 0 476.249 476.249;" xml:space="preserve">
<g>
	<g>
		<g>
			<path d="M433.926,212.768l-27.856-7.416c0.404-17.098-1.825-34.156-6.608-50.576l24.944-14.4c3.815-2.22,5.11-7.11,2.896-10.928
				l-32-55.424c-2.209-3.826-7.102-5.137-10.928-2.928l-24.944,14.4c-11.829-12.357-25.49-22.818-40.504-31.016l7.504-27.824
				c0-0.002,0.001-0.004,0.002-0.006c1.147-4.267-1.383-8.655-5.65-9.802L258.926,0.263c-0.001,0-0.002,0-0.002-0.001
				c-4.274-1.119-8.646,1.438-9.766,5.713l-7.408,27.8c-17.097-0.356-34.151,1.869-50.584,6.6l-14.4-24.928
				c-2.209-3.826-7.102-5.137-10.928-2.928l-55.424,32c-3.826,2.209-5.137,7.102-2.928,10.928l14.4,24.928
				c-12.354,11.835-22.815,25.498-31.016,40.512l-27.824-7.496c-2.053-0.538-4.236-0.251-6.08,0.8
				c-1.837,1.06-3.178,2.807-3.728,4.856l-16.576,61.848c-0.002,0.006-0.003,0.011-0.005,0.017
				c-1.138,4.269,1.399,8.653,5.669,9.791l27.856,7.416c-0.404,17.098,1.824,34.156,6.608,50.576l-24.944,14.4
				c-3.826,2.209-5.137,7.102-2.928,10.928l32,55.424c2.209,3.826,7.102,5.137,10.928,2.928l24.944-14.4
				c11.829,12.357,25.49,22.818,40.504,31.016l-7.504,27.824c0,0.002-0.001,0.004-0.002,0.006c-1.147,4.267,1.383,8.655,5.65,9.802
				l61.856,16.576c0.674,0.178,1.367,0.27,2.064,0.272l0,0.104c3.628,0.002,6.804-2.438,7.736-5.944l7.408-27.856
				c7.392,0.181,14.787-0.137,22.136-0.952c0.074-0.007,0.147-0.015,0.221-0.024c4.385-0.54,7.502-4.533,6.961-8.918
				c-0.54-4.385-4.533-7.502-8.918-6.961c-8.628,0.942-17.321,1.148-25.984,0.616c-3.794-0.203-7.218,2.264-8.224,5.928l-7,26.304
				l-46.4-12.424l7.088-26.28c0.991-3.676-0.746-7.54-4.152-9.24c-17.435-8.664-33.031-20.616-45.928-35.2
				c-2.527-2.84-6.704-3.508-9.992-1.6l-23.552,13.6l-24-41.6l23.552-13.6c3.292-1.902,4.79-5.858,3.584-9.464
				c-6.166-18.457-8.709-37.931-7.488-57.352c0.239-3.806-2.242-7.252-5.928-8.232l-26.312-7.008l12.424-46.4l26.296,7.088
				c3.676,0.991,7.54-0.746,9.24-4.152c8.662-17.438,20.615-33.036,35.2-45.936c2.84-2.527,3.508-6.704,1.6-9.992l-13.6-23.584
				l41.6-24l13.6,23.584c1.916,3.238,5.829,4.703,9.4,3.52c18.456-6.183,37.936-8.726,57.36-7.488
				c3.788,0.182,7.199-2.277,8.224-5.928l7-26.312l46.4,12.424l-7.088,26.288c-0.991,3.676,0.746,7.54,4.152,9.24
				c17.435,8.664,33.031,20.616,45.928,35.2c2.527,2.84,6.704,3.508,9.992,1.6l23.552-13.6l24,41.6l-23.552,13.6
				c-3.288,1.902-4.786,5.853-3.584,9.456c6.166,18.46,8.708,37.936,7.488,57.36c-0.239,3.806,2.242,7.252,5.928,8.232l26.304,6.968
				l-12.424,46.4l-26.296-7.088c-3.676-0.991-7.54,0.746-9.24,4.152c-4.086,8.222-8.906,16.059-14.4,23.416
				c-0.003,0.004-0.006,0.007-0.008,0.011c-2.648,3.537-1.927,8.551,1.61,11.199c3.537,2.648,8.551,1.927,11.199-1.61
				c4.77-6.369,9.082-13.069,12.904-20.048l27.832,7.512c0.004,0.001,0.008,0.002,0.011,0.003c4.268,1.143,8.654-1.391,9.797-5.659
				l16.576-61.856c0.001-0.002,0.001-0.005,0.002-0.007C440.731,218.291,438.194,213.907,433.926,212.768z"/>
			<path d="M341.838,317.376l6.928-4c3.826-2.209,5.137-7.102,2.928-10.928l-17.016-29.488
				c39.624-53.482,28.39-128.96-25.092-168.584c-53.482-39.624-128.96-28.39-168.584,25.092
				c-39.624,53.482-28.39,128.96,25.092,168.584c24.532,18.176,55.048,26.363,85.384,22.908l17.04,29.512
				c1.06,1.837,2.807,3.178,4.856,3.728c0.676,0.178,1.373,0.269,2.072,0.272c1.404,0,2.784-0.37,4-1.072l6.928-4l64,110.84
				c8.834,15.307,28.404,20.554,43.711,11.72c0.014-0.008,0.027-0.016,0.041-0.024c15.283-8.857,20.521-28.409,11.712-43.72
				L341.838,317.376z M251.462,304.824l-0.072,0.064c-13.442,1.733-27.094,0.817-40.184-2.696
				c-55.388-14.921-88.193-71.917-73.273-127.305s71.917-88.193,127.305-73.273s88.193,71.917,73.273,127.305
				c-3.504,13.006-9.503,25.206-17.665,35.921h-0.08c-1.529,0.918-2.699,2.329-3.32,4c-15.521,18.473-37.042,30.901-60.8,35.112
				C254.869,303.635,253.037,303.943,251.462,304.824z M285.31,331.552l-6.904,3.968l-10.176-17.6
				c21.044-5.43,40.202-16.512,55.4-32.048l10.2,17.68l-6.92,4L285.31,331.552z M386.135,458.074
				c-0.003,0.002-0.006,0.003-0.009,0.005h0c-7.654,4.416-17.439,1.792-21.855-5.862c0-0.001-0.001-0.001-0.001-0.002l-64-110.84
				l27.712-16l64,110.84C396.403,443.866,393.785,453.653,386.135,458.074z"/>
			<path d="M321.919,154.861c-0.214-0.377-0.43-0.752-0.65-1.125c-26.507-45.917-85.219-61.652-131.137-35.145
				c-45.917,26.507-61.652,85.219-35.145,131.137s85.219,61.652,131.137,35.145c0,0,0.001,0,0.001-0.001
				C331.911,258.854,347.937,200.646,321.919,154.861z M278.129,271.014c-0.001,0.001-0.002,0.001-0.003,0.002
				c-38.269,22.038-87.156,8.94-109.28-29.28c-22.093-38.263-8.984-87.19,29.278-109.283c38.263-22.093,87.19-8.984,109.283,29.278
				S316.391,248.921,278.129,271.014z"/>
			<rect x="188.538" y="217.738" transform="matrix(-0.4999 -0.8661 0.8661 -0.4999 99.2858 508.8048)" width="16" height="16"/>
			<rect x="216.268" y="201.731" transform="matrix(-0.4999 -0.8661 0.8661 -0.4999 154.7414 508.8117)" width="16" height="16"/>
			<rect x="243.981" y="185.692" transform="matrix(-0.4999 -0.8661 0.8661 -0.4999 210.2008 508.7567)" width="16" height="16"/>
			<rect x="271.695" y="169.733" transform="matrix(-0.4999 -0.8661 0.8661 -0.4999 265.5909 508.8218)" width="16" height="16"/>
		</g>
	</g>
</g>
<g>
</g>
<g>
</g>
<g>
</g>
<g>
</g>
<g>
</g>
<g>
</g>
<g>
</g>
<g>
</g>
<g>
</g>
<g>
</g>
<g>
</g>
<g>
</g>
<g>
</g>
<g>
</g>
<g>
</g>
</svg>
